<svg width="35" height="29" viewBox="0 0 35 29" fill="none" xmlns="http://www.w3.org/2000/svg">
<path fill-rule="evenodd" clip-rule="evenodd" d="M2.9707 12.4694C12.0145 8.52912 18.0452 5.93146 21.0626 4.67641C29.678 1.09296 31.4682 0.470481 32.6351 0.449926C32.8917 0.445405 33.4655 0.509007 33.8372 0.81061C34.1511 1.06528 34.2374 1.4093 34.2787 1.65075C34.3201 1.8922 34.3715 2.44224 34.3306 2.87202C33.8637 7.77748 31.8436 19.6817 30.8159 25.1759C30.381 27.5007 29.5247 28.2802 28.6957 28.3565C26.8942 28.5223 25.5261 27.1659 23.7812 26.0221C21.0508 24.2323 19.5083 23.1181 16.8579 21.3716C13.795 19.3532 15.7806 18.2438 17.5261 16.4308C17.983 15.9563 25.9207 8.73634 26.0743 8.08137C26.0935 7.99946 26.1114 7.69412 25.93 7.53289C25.7486 7.37166 25.4808 7.4268 25.2876 7.47065C25.0138 7.5328 20.6519 10.4158 12.202 16.1198C10.9639 16.97 9.84242 17.3842 8.83765 17.3625C7.72997 17.3386 5.59923 16.7362 4.01525 16.2213C2.07243 15.5898 0.528322 15.2559 0.662779 14.1833C0.732813 13.6247 1.50212 13.0534 2.9707 12.4694Z" fill="#77B33C"/>
</svg>
