<svg width="35" height="35" viewBox="0 0 35 35" fill="none" xmlns="http://www.w3.org/2000/svg">
<path fill-rule="evenodd" clip-rule="evenodd" d="M22.7821 0.192261H12.1787C2.49738 0.192261 0.192307 2.49734 0.192307 12.1787V22.782C0.192307 32.4634 2.49738 34.7684 12.1787 34.7684H22.7821C32.4634 34.7684 34.7685 32.4634 34.7685 22.782V12.1787C34.7685 2.49734 32.4634 0.192261 22.7821 0.192261ZM27.7449 11.1775C28.5075 11.1775 28.6677 11.5697 28.5075 12.1041C28.1871 13.5732 25.1156 17.9003 25.1156 17.9003C24.8486 18.3275 24.7418 18.5414 25.1156 19.0221C25.2473 19.2067 25.5285 19.4821 25.8503 19.7973C26.1807 20.121 26.5539 20.4865 26.8517 20.8385C27.9347 22.0571 28.7507 23.0848 28.9781 23.7932C29.186 24.5039 28.8256 24.8643 28.1053 24.8643H25.5839C24.9086 24.8643 24.5687 24.4861 23.834 23.6688C23.5225 23.3223 23.1401 22.8969 22.6311 22.3879C21.1355 20.9456 20.4943 20.7586 20.1205 20.7586C19.613 20.7586 19.4612 20.9022 19.4612 21.6226V23.8835C19.4612 24.5035 19.2626 24.8639 17.6602 24.8639C14.989 24.8639 12.0539 23.2423 9.97045 20.2507C6.84554 15.8702 5.99074 12.5582 5.99074 11.8905C5.99074 11.5167 6.1348 11.1775 6.85514 11.1775H9.37651C10.0208 11.1775 10.2632 11.4595 10.5048 12.1575C11.7381 15.7492 13.8169 18.8884 14.6717 18.8884C14.9921 18.8884 15.1392 18.7408 15.1392 17.9268V14.214C15.0815 13.1574 14.7124 12.7004 14.4389 12.3618C14.27 12.1528 14.1377 11.9889 14.1377 11.7568C14.1377 11.4748 14.3785 11.1775 14.7792 11.1775H18.7405C19.2749 11.1775 19.4608 11.4629 19.4608 12.1041V17.0989C19.4608 17.6329 19.6929 17.82 19.8531 17.82C20.1735 17.82 20.4405 17.6332 21.0283 17.0455C22.8447 15.0154 24.1267 11.8905 24.1267 11.8905C24.2869 11.5167 24.5823 11.1775 25.2235 11.1775H27.7449Z" fill="#77B33C"/>
</svg>
